PathFileType	4	(X/Y/Z)	C:/Users/beibeiliu/ov580/test_trc/User3\sequence.28_training_dense_left.trc
DataRate	CameraRate	NumFrames	NumMarkers	Units	OrigDataRate	OrigDataStartFrame	OrigNumFrames
120	120	18	19	mm	120	51	100
Frame#	Time	ThumbCMC			ThumbMCP			ThumbIP			ThumbTip			IndexMCP			IndexPIP			IndexTip			MiddleMCP			MiddlePIP			MiddleTip			RingMCP			RingPIP			RingTip			PinkyMCP			PinkyPIP			PinkyTip			BackHand1			BackHand2			BackHand3	
		X0	Y0	Z0	X1	Y1	Z1	X2	Y2	Z2	X3	Y3	Z3	X4	Y4	Z4	X5	Y5	Z5	X6	Y6	Z6	X7	Y7	Z7	X8	Y8	Z8	X9	Y9	Z9	X10	Y10	Z10	X11	Y11	Z11	X12	Y12	Z12	X13	Y13	Z13	X14	Y14	Z14	X15	Y15	Z15	X16	Y16	Z16	X17	Y17	Z17	X18	Y18	Z18	
50	0.416667	-17.5658	29.4662	11.4759	-10.9525	22.126	-21.1317	-6.97045	16.267	-48.612	-5.44799	10.8209	-72.8716	-36.1142	84.4814	-39.6898	-36.5455	96.0981	-68.7561	-32.2623	98.6706	-91.1751	-64.8316	97.0774	-30.9537	-67.3798	116.606	-52.5991	-71.6976	133.148	-75.8268	-84.5232	86.5291	-23.6209	-95.4206	104.322	-45.5478	-102.49	116.24	-70.1011	-104.837	69.6881	-15.6931	-118.383	78.7155	-30.2905	-126.758	86.0102	-51.0902	-76.3678	65.121	19.4838	-73.8764	53.5927	43.0374	-43.7237	62.1611	24.1348	
51	0.425	-16.7952	24.0283	20.0706	-5.98285	13.0219	-10.2865	-4.36868	6.83946	-38.6735	-3.15579	0.516149	-65.4039	-40.9267	77.4965	-34.6832	-36.7004	87.3848	-60.6389	-35.4431	93.8008	-86.4227	-68.8098	83.6423	-27.1246	-69.8287	100.891	-47.3097	-79.4145	120.688	-76.5388	-87.6718	69.1129	-26.5346	-97.6798	78.3615	-51.645	-108.898	79.0109	-74.7695	-108.288	46.7414	-15.6443	-116.818	47.614	-42.0982	-118.342	41.3332	-63.897	-78.7779	54.3596	21.571	-78.223	41.5779	48.5171	-45.0504	56.0202	29.3626	
52	0.433333	-30.8455	29.3813	24.1183	-18.4879	19.1971	-2.62144	-9.21684	14.8357	-38.1307	-10.1043	7.18002	-58.5541	-59.4614	78.6665	-24.9542	-55.4641	92.3677	-48.811	-53.8471	101.886	-74.2368	-89.929	82.2799	-21.9751	-91.6395	97.5305	-40.7776	-97.9161	113.855	-69.3916	-106.165	56.0708	-21.7995	-111.631	61.1432	-50.6468	-118.091	52.779	-78.1211	-116.785	31.3707	-17.4645	-117.048	22.5229	-42.8999	-113.877	7.29279	-64.208	-92.7661	48.1672	25.5965	-90.6091	35.4578	56.959	-59.9711	55.6611	34.121	
53	0.441667	-39.7019	33.4092	30.6737	-27.872	30.1989	-3.16482	-18.144	27.7581	-32.4576	-18.9466	22.1574	-52.4917	-75.2867	83.4997	-14.9185	-71.7684	101.996	-37.7296	-69.4017	113.748	-57.2843	-103.673	83.2289	-15.2941	-114.087	98.8813	-37.5724	-122.492	109.009	-65.8661	-114.968	55.2774	-22.3855	-121.809	50.2209	-48.8689	-117.308	37.6017	-73.7026	-121.638	27.0322	-16.5742	-113.997	14.18	-38.6578	-102.491	-1.92644	-53.2862	-109.226	44.5964	35.2049	-101.586	32.9093	59.0797	-73.5429	56.6263	39.8203	
54	0.45	-47.558	39.9812	31.2878	-35.2241	38.331	4.70438	-23.1446	41.8721	-24.7476	-22.1497	39.2144	-46.5291	-85.5508	88.6197	-7.5915	-83.6698	112.014	-28.2557	-82.6392	124.811	-44.4597	-117.679	80.3033	-9.78504	-124.668	96.4223	-37.9507	-129.145	99.8616	-70.8945	-123.897	50.3285	-19.6017	-123.431	41.3941	-50.4512	-108.603	25.0679	-67.5696	-123.908	24.561	-17.8497	-111.885	11.7949	-34.5466	-92.4725	-2.86313	-42.2256	-117.318	44.6015	35.9851	-108.863	27.007	61.1621	-81.3718	54.289	44.4106	
55	0.458333	-53.017	39.6608	36.1595	-37.636	44.5376	7.11556	-28.7101	49.5617	-18.1876	-18.8383	52.8342	-41.5299	-92.2331	89.1856	0.965039	-92.7839	113.594	-16.8393	-94.1166	132.19	-32.8736	-119.339	81.3672	-8.96541	-125.753	92.3356	-40.4463	-125.635	82.5069	-71.1496	-122.774	52.9403	-15.4953	-118.809	38.4733	-48.5895	-101.938	19.1693	-58.7554	-128.599	26.3732	-13.8642	-114.966	16.6495	-30.5155	-92.5201	-3.90503	-38.4468	-117.437	44.8508	39.3259	-109.674	29.9085	62.774	-86.1749	53.8974	52.2671	
56	0.466667	-53.2901	41.8674	37.9718	-38.3038	47.0216	11.6466	-26.0999	55.6222	-13.4262	-18.0035	58.2883	-32.8654	-93.9933	92.716	4.91154	-96.0286	114.374	-10.5182	-99.6673	132.595	-24.3097	-119.071	80.6945	-12.5886	-120.66	81.2538	-45.9371	-111.664	61.0188	-73.8528	-123.966	52.3366	-12.8734	-118.082	37.8298	-44.3135	-97.7328	17.8745	-54.5267	-132.195	31.8533	-6.75592	-123.76	22.5012	-29.0847	-104.431	3.9083	-43.2313	-123.988	45.7847	40.2697	-113.457	26.7946	68.3919	-86.3965	54.7555	50.9201	
57	0.475	-53.083	38.1061	42.5288	-40.8933	46.1854	16.1324	-30.2267	57.6514	-11.5089	-20.4412	62.8906	-29.2968	-94.132	92.4139	0.354534	-100.56	109.819	-16.2078	-104.52	127.75	-32.7868	-114.872	75.5419	-16.1389	-112.218	73.06	-45.4381	-97.8441	46.3257	-72.7461	-123.274	54.1075	-16.3262	-118.582	44.4628	-43.7204	-104.162	24.7906	-57.0406	-136.368	33.2657	-4.96787	-134.266	25.5666	-32.096	-123.012	14.1559	-50.8995	-120.465	42.2499	42.473	-108.998	29.3405	67.5044	-86.5439	52.4449	54.583	
58	0.483333	-43.1043	37.5726	44.2424	-34.1528	45.8435	17.5688	-21.4339	57.3267	-4.59245	-11.5099	66.2683	-25.2525	-85.3736	84.8541	-4.89641	-89.3939	98.3091	-27.16	-94.4108	112.416	-52.2844	-104.385	69.5719	-17.2268	-98.6077	63.7939	-52.1873	-86.3622	41.6055	-76.4551	-118.478	54.5767	-12.014	-117.933	49.3116	-43.4929	-108.078	35.4108	-63.5762	-133.151	35.8467	-1.80672	-136.947	36.7693	-25.9549	-133.874	28.4478	-53.1223	-110.425	45.4385	40.0895	-104.384	26.4572	67.1801	-80.9406	51.9018	52.6536	
59	0.491667	-31.6104	31.9314	44.9138	-21.0653	41.5418	18.9091	-9.38484	52.6712	-4.54443	-1.02015	60.4829	-25.6708	-65.7889	74.02	-21.3529	-63.324	77.7294	-47.0382	-67.7472	79.1346	-66.5531	-91.2299	65.1854	-24.7226	-86.6626	62.27	-52.3157	-82.9453	42.9955	-81.3774	-108.138	55.6282	-15.5153	-110.049	57.1553	-43.9821	-111.108	47.8922	-72.2213	-121.004	35.2115	1.66099	-133.964	41.7525	-24.1328	-137.273	40.6943	-44.605	-101.612	39.9244	41.21	-96.2431	28.0961	65.546	-64.9108	50.7687	49.4408	
60	0.5	-24.7992	26.5308	43.0399	-13.2116	33.1856	17.7334	1.1561	43.0092	-10.9766	6.89761	46.0394	-29.286	-57.2409	57.7076	-23.6661	-55.0331	56.0296	-50.3441	-55.9818	56.0571	-77.8721	-82.875	61.4588	-25.1143	-86.9715	61.2561	-51.6339	-85.8912	56.3261	-88.7171	-103.14	49.6745	-14.4149	-112.011	54.2449	-39.9063	-115.02	55.1693	-65.4216	-115.065	30.0665	0.556636	-131.101	33.2807	-18.6872	-142.022	34.2368	-39.8751	-92.239	38.8321	34.3787	-86.0118	25.8746	64.7356	-61.8316	42.5002	44.9336	
61	0.508333	-26.0988	21.14	36.0364	-11.9202	21.1993	10.7845	1.43393	23.3017	-15.3035	8.96337	23.6014	-39.2673	-65.4544	50.604	-27.0462	-62.592	52.8652	-55.8832	-58.4613	53.3868	-81.13	-92.7946	54.905	-24.8616	-101.368	61.5993	-51.1384	-106.535	67.2379	-81.8952	-111.817	35.1913	-13.6937	-120.398	41.8962	-39.2334	-131.647	39.899	-65.4708	-124.454	14.4844	-1.47778	-135.604	12.098	-23.5686	-140.032	4.47501	-45.2697	-97.2184	29.6064	31.9915	-88.8297	21.0856	59.9802	-59.8097	39.807	42.4312	
62	0.516667	-34.6525	15.678	32.1863	-22.0827	11.2588	1.77338	-11.6129	7.41837	-20.7517	-7.31786	3.11316	-47.549	-78.0099	49.3866	-28.364	-77.1617	57.3342	-52.5112	-79.6952	60.2298	-81.3548	-106.102	47.8374	-19.5402	-116.831	60.6932	-46.2704	-130.261	66.7661	-72.0578	-123.154	25.2107	-15.767	-131.92	27.886	-40.4241	-139.854	15.6505	-69.244	-130.326	0.0466076	-3.38686	-137.599	-11.7531	-26.4081	-132.625	-29.1111	-47.1706	-102.902	23.3274	36.0001	-93.7308	16.1172	59.9381	-70.9737	33.4779	38.5239	
63	0.525	-47.1466	10.5817	28.1184	-34.2344	2.85861	-0.519093	-26.5543	-3.69412	-26.6968	-26.6605	-13.6463	-51.0672	-92.3495	42.6279	-26.1241	-95.098	55.3833	-52.6545	-96.9021	62.2615	-77.9781	-122.607	37.9353	-19.366	-133.438	48.6251	-42.9406	-144.374	51.5677	-75.8235	-131.377	11.4119	-15.5973	-140.2	5.67036	-46.4908	-137.074	-16.368	-67.0355	-134.026	-13.8919	-5.47513	-133.595	-33.7217	-27.0101	-112.545	-48.6751	-40.0158	-113.561	14.2936	32.5167	-108.415	7.37792	62.4495	-83.9249	29.6138	34.882	
64	0.533333	-57.3107	2.21917	25.28	-40.5189	-8.02946	-0.416144	-33.5447	-16.3313	-33.5837	-39.3656	-30.4402	-50.7744	-102.013	31.7349	-28.8564	-104.798	45.6225	-54.5983	-104.519	51.9687	-76.1592	-128.149	23.1657	-23.6086	-143.286	26.1013	-53.4022	-147.595	14.2605	-85.8418	-137.887	-7.50827	-23.5637	-137.617	-21.0721	-50.885	-116.92	-45.7732	-59.9294	-132.702	-31.9552	-12.0773	-122.275	-52.8119	-28.8856	-98.4954	-67.4594	-24.6341	-122.975	0.493819	28.8684	-113.783	-3.98843	56.8773	-91.1992	16.9828	31.8668	
65	0.541667	-54.704	-13.1128	26.1656	-41.493	-25.4963	-4.3795	-34.2449	-37.0312	-26.139	-41.601	-50.2348	-49.1324	-89.6347	17.3866	-27.4014	-92.8709	31.5789	-57.3965	-91.5012	36.1288	-85.3335	-118.362	9.75044	-33.5501	-129.493	3.83199	-64.772	-124.301	-19.9175	-88.0303	-123.942	-18.7752	-33.5718	-119.219	-41.4756	-54.8281	-99.8147	-64.9876	-44.9245	-127.248	-43.5228	-20.0193	-115.14	-66.7734	-26.6495	-88.5877	-71.605	-14.3302	-119.412	-8.44788	24.3572	-118.341	-10.188	50.3188	-90.778	6.34613	30.5711	
66	0.55	-44.5112	-25.8032	30.4168	-30.7424	-41.4099	5.14008	-27.5558	-54.3085	-22.6603	-36.7765	-66.5463	-45.4557	-61.6599	9.88474	-28.802	-57.2854	21.0017	-60.0268	-51.7001	12.0773	-88.7892	-92.1267	6.81533	-42.929	-91.6045	-1.10149	-72.9944	-87.68	-41.9306	-81.3515	-104.825	-16.8912	-40.1024	-104.445	-43.2831	-56.4944	-90.6605	-64.9954	-38.1304	-119.936	-30.8292	-23.8664	-110.934	-56.0394	-34.6701	-98.3509	-70.9324	-11.431	-104.386	-0.211515	17.8529	-107.221	-4.32071	43.6862	-73.2443	4.32144	29.004	
67	0.558333	-37.5577	-31.7736	37.6128	-27.0755	-51.0729	14.6402	-21.6398	-64.4777	-14.6166	-38.5763	-67.2563	-37.9906	-34.5065	3.99928	-27.9458	-22.7544	3.38771	-58.6183	-23.4988	-20.4289	-79.5967	-57.3973	8.82374	-42.8355	-58.0167	-6.5355	-72.979	-68.124	-42.0594	-68.6894	-77.3775	0.238205	-41.5408	-82.7722	-26.2179	-59.3462	-83.2737	-48.5031	-36.9428	-99.0022	-3.12028	-33.4419	-100.958	-26.7749	-47.9509	-96.4749	-48.2433	-26.6147	-81.9757	15.0509	14.8827	-88.1654	11.2294	39.5528	-53.2928	4.84614	30.8734	
